<svg xmlns="http://www.w3.org/2000/svg" width="52.03" height="22" viewBox="0 0 52.03 22">
  <defs>
    <style>
      .cls-1 {
        fill: #fff;
        fill-rule: evenodd;
      }
    </style>
  </defs>
  <path id="Arrow.svg" class="cls-1" d="M1237,471h48a1,1,0,0,1,0,2h-48A1,1,0,0,1,1237,471Zm40.71-9.729,10.01,10a1.01,1.01,0,1,1-1.43,1.428l-10.01-10A1.011,1.011,0,1,1,1277.71,461.271Zm10.01,10a1.018,1.018,0,0,1,0,1.428l-10.01,10a1.01,1.01,0,1,1-1.43-1.428l10.01-10A1.011,1.011,0,0,1,1287.72,471.27Z" transform="translate(-1236 -461)"/>
</svg>
